<svg xmlns="http://www.w3.org/2000/svg" viewBox="0 0 640 400" preserveAspectRatio="xMidYMid slice"><defs><linearGradient id="g" x1="0" y1="0" x2="1" y2="1"><stop offset="0" stop-color="#2c1516"/><stop offset="1" stop-color="#110b28"/></linearGradient><radialGradient id="r" cx="0.61" cy="0.51" r="0.7"><stop offset="0" stop-color="#E0533D" stop-opacity="0.35"/><stop offset="1" stop-color="#E0533D" stop-opacity="0"/></radialGradient></defs><rect width="640" height="400" fill="url(#g)"/><rect width="640" height="400" fill="url(#r)"/><rect x="324.8" y="164.8" width="70.4" height="70.4" rx="16.9" fill="#E0533D" opacity="0.90"/><rect x="244.8" y="244.8" width="70.4" height="70.4" rx="16.9" fill="#E0533D" opacity="0.95"/><rect x="244.8" y="84.8" width="70.4" height="70.4" rx="16.9" fill="#6A2BF0" opacity="0.87"/><rect x="94.7" y="94.7" width="10.5" height="10.5" rx="2.7" fill="#E0533D" opacity="0.27"/><rect x="93.6" y="173.6" width="12.7" height="12.7" rx="3.3" fill="#6A2BF0" opacity="0.32"/><rect x="93.8" y="293.8" width="12.4" height="12.4" rx="3.2" fill="#E0533D" opacity="0.31"/><rect x="133.0" y="173.0" width="13.9" height="13.9" rx="3.6" fill="#6A2BF0" opacity="0.40"/><rect x="210.9" y="170.9" width="18.3" height="18.3" rx="4.7" fill="#6A2BF0" opacity="0.50"/><rect x="210.2" y="210.2" width="19.7" height="19.7" rx="5.1" fill="#eb8f81" opacity="0.61"/><rect x="210.3" y="290.3" width="19.3" height="19.3" rx="5.0" fill="#E0533D" opacity="0.45"/><rect x="251.8" y="51.8" width="16.5" height="16.5" rx="4.3" fill="#E0533D" opacity="0.41"/><rect x="291.6" y="51.6" width="16.8" height="16.8" rx="4.4" fill="#E0533D" opacity="0.39"/><rect x="286.7" y="206.7" width="26.6" height="26.6" rx="6.9" fill="#6A2BF0" opacity="0.57"/><rect x="290.8" y="370.8" width="18.4" height="18.4" rx="4.8" fill="#eb8f81" opacity="0.46"/><rect x="329.2" y="129.2" width="21.7" height="21.7" rx="5.6" fill="#E0533D" opacity="0.68"/><rect x="371.5" y="51.5" width="17.0" height="17.0" rx="4.4" fill="#0A6BF9" opacity="0.52"/><rect x="365.7" y="245.7" width="28.5" height="28.5" rx="7.4" fill="#6A2BF0" opacity="0.65"/><rect x="407.7" y="127.7" width="24.7" height="24.7" rx="6.4" fill="#eb8f81" opacity="0.74"/><rect x="406.4" y="166.4" width="27.3" height="27.3" rx="7.1" fill="#eb8f81" opacity="0.79"/><rect x="406.0" y="206.0" width="28.0" height="28.0" rx="7.3" fill="#eb8f81" opacity="0.90"/><rect x="406.0" y="286.0" width="28.0" height="28.0" rx="7.3" fill="#E0533D" opacity="0.70"/><rect x="411.0" y="371.0" width="18.0" height="18.0" rx="4.7" fill="#E0533D" opacity="0.53"/><rect x="453.1" y="13.1" width="13.9" height="13.9" rx="3.6" fill="#6A2BF0" opacity="0.40"/><rect x="449.1" y="89.1" width="21.7" height="21.7" rx="5.6" fill="#0A6BF9" opacity="0.58"/><rect x="446.6" y="166.6" width="26.7" height="26.7" rx="6.9" fill="#6A2BF0" opacity="0.68"/><rect x="444.6" y="204.6" width="30.8" height="30.8" rx="8.0" fill="#6A2BF0" opacity="0.80"/><rect x="447.1" y="247.1" width="25.8" height="25.8" rx="6.7" fill="#6A2BF0" opacity="0.67"/><rect x="448.9" y="288.9" width="22.1" height="22.1" rx="5.8" fill="#6A2BF0" opacity="0.75"/><rect x="450.6" y="330.6" width="18.8" height="18.8" rx="4.9" fill="#E0533D" opacity="0.62"/><rect x="450.2" y="370.2" width="19.6" height="19.6" rx="5.1" fill="#E0533D" opacity="0.50"/><rect x="489.1" y="129.1" width="21.8" height="21.8" rx="5.7" fill="#eb8f81" opacity="0.52"/><rect x="487.6" y="247.6" width="24.9" height="24.9" rx="6.5" fill="#6A2BF0" opacity="0.64"/><rect x="487.1" y="287.1" width="25.9" height="25.9" rx="6.7" fill="#6A2BF0" opacity="0.61"/><rect x="531.4" y="91.4" width="17.3" height="17.3" rx="4.5" fill="#E0533D" opacity="0.54"/><rect x="530.0" y="170.0" width="20.0" height="20.0" rx="5.2" fill="#eb8f81" opacity="0.62"/><rect x="529.0" y="289.0" width="22.1" height="22.1" rx="5.7" fill="#eb8f81" opacity="0.54"/><rect x="571.0" y="91.0" width="18.0" height="18.0" rx="4.7" fill="#E0533D" opacity="0.41"/><rect x="569.1" y="169.1" width="21.8" height="21.8" rx="5.7" fill="#E0533D" opacity="0.60"/><rect x="569.1" y="209.1" width="21.8" height="21.8" rx="5.7" fill="#E0533D" opacity="0.63"/><rect x="568.8" y="248.8" width="22.4" height="22.4" rx="5.8" fill="#E0533D" opacity="0.58"/><rect x="572.7" y="372.7" width="14.5" height="14.5" rx="3.8" fill="#E0533D" opacity="0.40"/><rect x="610.3" y="250.3" width="19.4" height="19.4" rx="5.1" fill="#E0533D" opacity="0.44"/><rect x="611.7" y="331.7" width="16.6" height="16.6" rx="4.3" fill="#0A6BF9" opacity="0.41"/></svg>