<svg xmlns="http://www.w3.org/2000/svg" viewBox="0 0 640 400" preserveAspectRatio="xMidYMid slice"><defs><linearGradient id="g" x1="0" y1="0" x2="1" y2="1"><stop offset="0" stop-color="#0b1835"/><stop offset="1" stop-color="#051821"/></linearGradient><radialGradient id="r" cx="0.83" cy="0.55" r="0.7"><stop offset="0" stop-color="#2563EB" stop-opacity="0.35"/><stop offset="1" stop-color="#2563EB" stop-opacity="0"/></radialGradient></defs><rect width="640" height="400" fill="url(#g)"/><rect width="640" height="400" fill="url(#r)"/><rect x="484.8" y="244.8" width="70.4" height="70.4" rx="16.9" fill="#6119F9" opacity="0.85"/><rect x="564.8" y="164.8" width="70.4" height="70.4" rx="16.9" fill="#0891B2" opacity="0.87"/><rect x="444.8" y="124.8" width="70.4" height="70.4" rx="16.9" fill="#6119F9" opacity="0.94"/><rect x="252.4" y="212.4" width="15.2" height="15.2" rx="3.9" fill="#2563EB" opacity="0.39"/><rect x="253.2" y="253.2" width="13.6" height="13.6" rx="3.5" fill="#E2323F" opacity="0.34"/><rect x="253.2" y="293.2" width="13.7" height="13.7" rx="3.6" fill="#719af2" opacity="0.38"/><rect x="292.2" y="132.2" width="15.5" height="15.5" rx="4.0" fill="#E2323F" opacity="0.41"/><rect x="292.0" y="172.0" width="16.0" height="16.0" rx="4.2" fill="#0891B2" opacity="0.42"/><rect x="332.5" y="132.5" width="15.0" height="15.0" rx="3.9" fill="#0891B2" opacity="0.45"/><rect x="331.1" y="211.1" width="17.8" height="17.8" rx="4.6" fill="#2563EB" opacity="0.44"/><rect x="332.0" y="292.0" width="16.0" height="16.0" rx="4.2" fill="#2563EB" opacity="0.51"/><rect x="369.6" y="169.6" width="20.8" height="20.8" rx="5.4" fill="#719af2" opacity="0.60"/><rect x="368.4" y="208.4" width="23.2" height="23.2" rx="6.0" fill="#E2323F" opacity="0.58"/><rect x="414.0" y="14.0" width="12.0" height="12.0" rx="3.1" fill="#2563EB" opacity="0.30"/><rect x="407.8" y="207.8" width="24.4" height="24.4" rx="6.4" fill="#719af2" opacity="0.57"/><rect x="409.8" y="289.8" width="20.5" height="20.5" rx="5.3" fill="#E2323F" opacity="0.61"/><rect x="449.1" y="209.1" width="21.9" height="21.9" rx="5.7" fill="#2563EB" opacity="0.69"/><rect x="449.1" y="329.1" width="21.8" height="21.8" rx="5.7" fill="#2563EB" opacity="0.53"/><rect x="490.4" y="90.4" width="19.2" height="19.2" rx="5.0" fill="#0891B2" opacity="0.53"/><rect x="491.3" y="371.3" width="17.4" height="17.4" rx="4.5" fill="#0891B2" opacity="0.54"/><rect x="525.8" y="205.8" width="28.4" height="28.4" rx="7.4" fill="#2563EB" opacity="0.68"/><rect x="569.3" y="89.3" width="21.4" height="21.4" rx="5.6" fill="#0891B2" opacity="0.54"/><rect x="568.4" y="128.4" width="23.2" height="23.2" rx="6.0" fill="#2563EB" opacity="0.55"/><rect x="566.7" y="246.7" width="26.5" height="26.5" rx="6.9" fill="#E2323F" opacity="0.84"/><rect x="610.4" y="130.4" width="19.1" height="19.1" rx="5.0" fill="#719af2" opacity="0.58"/><rect x="608.3" y="248.3" width="23.5" height="23.5" rx="6.1" fill="#719af2" opacity="0.77"/><rect x="607.0" y="287.0" width="26.1" height="26.1" rx="6.8" fill="#E2323F" opacity="0.68"/></svg>