<svg xmlns="http://www.w3.org/2000/svg" viewBox="0 0 640 400" preserveAspectRatio="xMidYMid slice"><defs><linearGradient id="g" x1="0" y1="0" x2="1" y2="1"><stop offset="0" stop-color="#2c1516"/><stop offset="1" stop-color="#110b28"/></linearGradient><radialGradient id="r" cx="0.78" cy="0.54" r="0.7"><stop offset="0" stop-color="#E0533D" stop-opacity="0.35"/><stop offset="1" stop-color="#E0533D" stop-opacity="0"/></radialGradient></defs><rect width="640" height="400" fill="url(#g)"/><rect width="640" height="400" fill="url(#r)"/><rect x="444.8" y="204.8" width="70.4" height="70.4" rx="16.9" fill="#E0533D" opacity="0.89"/><rect x="524.8" y="244.8" width="70.4" height="70.4" rx="16.9" fill="#E0533D" opacity="0.91"/><rect x="251.6" y="171.6" width="16.7" height="16.7" rx="4.3" fill="#6A2BF0" opacity="0.45"/><rect x="251.6" y="251.6" width="16.8" height="16.8" rx="4.4" fill="#E0533D" opacity="0.43"/><rect x="292.9" y="92.9" width="14.2" height="14.2" rx="3.7" fill="#E0533D" opacity="0.36"/><rect x="291.4" y="211.4" width="17.2" height="17.2" rx="4.5" fill="#6A2BF0" opacity="0.52"/><rect x="290.8" y="250.8" width="18.4" height="18.4" rx="4.8" fill="#F2B30C" opacity="0.45"/><rect x="292.2" y="292.2" width="15.6" height="15.6" rx="4.1" fill="#E0533D" opacity="0.48"/><rect x="292.8" y="332.8" width="14.4" height="14.4" rx="3.8" fill="#E0533D" opacity="0.39"/><rect x="293.3" y="373.3" width="13.4" height="13.4" rx="3.5" fill="#eb8f81" opacity="0.36"/><rect x="331.5" y="91.5" width="17.1" height="17.1" rx="4.4" fill="#6A2BF0" opacity="0.45"/><rect x="331.6" y="131.6" width="16.8" height="16.8" rx="4.4" fill="#E0533D" opacity="0.45"/><rect x="329.7" y="289.7" width="20.5" height="20.5" rx="5.3" fill="#E0533D" opacity="0.59"/><rect x="331.3" y="331.3" width="17.4" height="17.4" rx="4.5" fill="#eb8f81" opacity="0.52"/><rect x="371.3" y="91.3" width="17.4" height="17.4" rx="4.5" fill="#6A2BF0" opacity="0.50"/><rect x="368.9" y="128.9" width="22.2" height="22.2" rx="5.8" fill="#6A2BF0" opacity="0.60"/><rect x="368.2" y="168.2" width="23.6" height="23.6" rx="6.1" fill="#E0533D" opacity="0.53"/><rect x="368.1" y="208.1" width="23.9" height="23.9" rx="6.2" fill="#6A2BF0" opacity="0.71"/><rect x="369.6" y="249.6" width="20.9" height="20.9" rx="5.4" fill="#eb8f81" opacity="0.58"/><rect x="369.7" y="289.7" width="20.7" height="20.7" rx="5.4" fill="#6A2BF0" opacity="0.64"/><rect x="371.3" y="331.3" width="17.3" height="17.3" rx="4.5" fill="#6A2BF0" opacity="0.49"/><rect x="371.0" y="371.0" width="18.1" height="18.1" rx="4.7" fill="#6A2BF0" opacity="0.48"/><rect x="407.3" y="167.3" width="25.5" height="25.5" rx="6.6" fill="#eb8f81" opacity="0.56"/><rect x="407.8" y="207.8" width="24.4" height="24.4" rx="6.4" fill="#6A2BF0" opacity="0.61"/><rect x="409.5" y="289.5" width="21.1" height="21.1" rx="5.5" fill="#F2B30C" opacity="0.67"/><rect x="410.6" y="370.6" width="18.7" height="18.7" rx="4.9" fill="#E0533D" opacity="0.44"/><rect x="449.1" y="89.1" width="21.9" height="21.9" rx="5.7" fill="#E0533D" opacity="0.51"/><rect x="446.8" y="286.8" width="26.4" height="26.4" rx="6.9" fill="#E0533D" opacity="0.59"/><rect x="449.9" y="329.9" width="20.2" height="20.2" rx="5.3" fill="#E0533D" opacity="0.55"/><rect x="493.0" y="13.0" width="14.1" height="14.1" rx="3.7" fill="#E0533D" opacity="0.33"/><rect x="490.5" y="90.5" width="18.9" height="18.9" rx="4.9" fill="#6A2BF0" opacity="0.50"/><rect x="486.9" y="126.9" width="26.2" height="26.2" rx="6.8" fill="#E0533D" opacity="0.57"/><rect x="489.8" y="329.8" width="20.4" height="20.4" rx="5.3" fill="#F2B30C" opacity="0.58"/><rect x="528.9" y="128.9" width="22.2" height="22.2" rx="5.8" fill="#eb8f81" opacity="0.55"/><rect x="525.7" y="165.7" width="28.7" height="28.7" rx="7.4" fill="#6A2BF0" opacity="0.78"/><rect x="527.1" y="207.1" width="25.7" height="25.7" rx="6.7" fill="#6A2BF0" opacity="0.83"/><rect x="572.1" y="52.1" width="15.7" height="15.7" rx="4.1" fill="#E0533D" opacity="0.45"/><rect x="569.6" y="89.6" width="20.9" height="20.9" rx="5.4" fill="#6A2BF0" opacity="0.53"/><rect x="568.8" y="128.8" width="22.5" height="22.5" rx="5.8" fill="#6A2BF0" opacity="0.53"/><rect x="569.2" y="169.2" width="21.6" height="21.6" rx="5.6" fill="#E0533D" opacity="0.69"/><rect x="567.7" y="207.7" width="24.5" height="24.5" rx="6.4" fill="#E0533D" opacity="0.63"/><rect x="570.5" y="330.5" width="18.9" height="18.9" rx="4.9" fill="#E0533D" opacity="0.52"/><rect x="608.8" y="128.8" width="22.4" height="22.4" rx="5.8" fill="#E0533D" opacity="0.57"/><rect x="606.3" y="246.3" width="27.3" height="27.3" rx="7.1" fill="#6A2BF0" opacity="0.59"/><rect x="608.4" y="288.4" width="23.2" height="23.2" rx="6.0" fill="#E0533D" opacity="0.70"/><rect x="610.3" y="330.3" width="19.5" height="19.5" rx="5.1" fill="#6A2BF0" opacity="0.53"/></svg>