<svg xmlns="http://www.w3.org/2000/svg" viewBox="0 0 640 400" preserveAspectRatio="xMidYMid slice"><defs><linearGradient id="g" x1="0" y1="0" x2="1" y2="1"><stop offset="0" stop-color="#2c1516"/><stop offset="1" stop-color="#071819"/></linearGradient><radialGradient id="r" cx="0.64" cy="0.37" r="0.7"><stop offset="0" stop-color="#E0533D" stop-opacity="0.35"/><stop offset="1" stop-color="#E0533D" stop-opacity="0"/></radialGradient></defs><rect width="640" height="400" fill="url(#g)"/><rect width="640" height="400" fill="url(#r)"/><rect x="244.8" y="84.8" width="70.4" height="70.4" rx="16.9" fill="#E0533D" opacity="0.86"/><rect x="484.8" y="84.8" width="70.4" height="70.4" rx="16.9" fill="#6119F9" opacity="0.91"/><rect x="249.7" y="249.7" width="20.5" height="20.5" rx="5.3" fill="#E0533D" opacity="0.48"/><rect x="249.6" y="289.6" width="20.7" height="20.7" rx="5.4" fill="#E0533D" opacity="0.67"/><rect x="245.8" y="325.8" width="28.5" height="28.5" rx="7.4" fill="#E0533D" opacity="0.64"/><rect x="246.2" y="366.2" width="27.6" height="27.6" rx="7.2" fill="#E0533D" opacity="0.91"/><rect x="289.0" y="209.0" width="22.0" height="22.0" rx="5.7" fill="#E0533D" opacity="0.52"/><rect x="285.3" y="285.3" width="29.5" height="29.5" rx="7.7" fill="#eb8f81" opacity="0.88"/><rect x="284.4" y="324.4" width="31.2" height="31.2" rx="8.1" fill="#E0533D" opacity="0.94"/><rect x="286.9" y="366.9" width="26.1" height="26.1" rx="6.8" fill="#eb8f81" opacity="0.71"/><rect x="328.3" y="208.3" width="23.3" height="23.3" rx="6.1" fill="#eb8f81" opacity="0.68"/><rect x="326.0" y="246.0" width="28.0" height="28.0" rx="7.3" fill="#14966F" opacity="0.82"/><rect x="327.5" y="327.5" width="25.1" height="25.1" rx="6.5" fill="#E0533D" opacity="0.63"/><rect x="368.7" y="128.7" width="22.6" height="22.6" rx="5.9" fill="#E0533D" opacity="0.57"/><rect x="366.3" y="166.3" width="27.4" height="27.4" rx="7.1" fill="#F2B30C" opacity="0.78"/><rect x="363.8" y="203.8" width="32.4" height="32.4" rx="8.4" fill="#14966F" opacity="0.95"/><rect x="366.2" y="246.2" width="27.7" height="27.7" rx="7.2" fill="#F2B30C" opacity="0.79"/><rect x="368.2" y="288.2" width="23.6" height="23.6" rx="6.1" fill="#eb8f81" opacity="0.69"/><rect x="373.0" y="373.0" width="14.0" height="14.0" rx="3.6" fill="#14966F" opacity="0.38"/><rect x="406.5" y="126.5" width="26.9" height="26.9" rx="7.0" fill="#14966F" opacity="0.69"/><rect x="403.5" y="163.5" width="33.0" height="33.0" rx="8.6" fill="#E0533D" opacity="0.99"/><rect x="450.8" y="10.8" width="18.4" height="18.4" rx="4.8" fill="#E0533D" opacity="0.50"/><rect x="447.2" y="47.2" width="25.6" height="25.6" rx="6.7" fill="#eb8f81" opacity="0.56"/><rect x="445.2" y="85.2" width="29.6" height="29.6" rx="7.7" fill="#14966F" opacity="0.87"/><rect x="445.0" y="125.0" width="30.1" height="30.1" rx="7.8" fill="#F2B30C" opacity="0.93"/><rect x="445.3" y="165.3" width="29.3" height="29.3" rx="7.6" fill="#14966F" opacity="0.80"/><rect x="450.3" y="250.3" width="19.5" height="19.5" rx="5.1" fill="#E0533D" opacity="0.45"/><rect x="452.8" y="292.8" width="14.4" height="14.4" rx="3.7" fill="#E0533D" opacity="0.35"/><rect x="487.2" y="47.2" width="25.5" height="25.5" rx="6.6" fill="#E0533D" opacity="0.72"/><rect x="524.1" y="4.1" width="31.7" height="31.7" rx="8.2" fill="#14966F" opacity="0.94"/><rect x="524.6" y="44.6" width="30.7" height="30.7" rx="8.0" fill="#E0533D" opacity="0.71"/><rect x="531.8" y="171.8" width="16.4" height="16.4" rx="4.3" fill="#14966F" opacity="0.44"/><rect x="566.5" y="6.5" width="26.9" height="26.9" rx="7.0" fill="#F2B30C" opacity="0.64"/><rect x="611.4" y="51.4" width="17.3" height="17.3" rx="4.5" fill="#F2B30C" opacity="0.55"/></svg>