<svg xmlns="http://www.w3.org/2000/svg" viewBox="0 0 640 400" preserveAspectRatio="xMidYMid slice"><defs><linearGradient id="g" x1="0" y1="0" x2="1" y2="1"><stop offset="0" stop-color="#251c0b"/><stop offset="1" stop-color="#061329"/></linearGradient><radialGradient id="r" cx="0.67" cy="0.54" r="0.7"><stop offset="0" stop-color="#B97A00" stop-opacity="0.35"/><stop offset="1" stop-color="#B97A00" stop-opacity="0"/></radialGradient></defs><rect width="640" height="400" fill="url(#g)"/><rect width="640" height="400" fill="url(#r)"/><rect x="444.8" y="124.8" width="110.4" height="110.4" rx="26.5" fill="#B97A00" opacity="0.84"/><rect x="369.4" y="169.4" width="21.2" height="21.2" rx="5.5" fill="#B97A00" opacity="0.45"/><rect x="369.7" y="209.7" width="20.5" height="20.5" rx="5.3" fill="#0A6BF9" opacity="0.50"/><rect x="371.0" y="291.0" width="17.9" height="17.9" rx="4.7" fill="#B97A00" opacity="0.53"/><rect x="368.9" y="328.9" width="22.2" height="22.2" rx="5.8" fill="#0A6BF9" opacity="0.60"/><rect x="408.5" y="8.5" width="23.0" height="23.0" rx="6.0" fill="#0A6BF9" opacity="0.66"/><rect x="408.0" y="88.0" width="24.1" height="24.1" rx="6.3" fill="#B97A00" opacity="0.77"/><rect x="406.7" y="166.7" width="26.6" height="26.6" rx="6.9" fill="#B97A00" opacity="0.69"/><rect x="406.7" y="206.7" width="26.6" height="26.6" rx="6.9" fill="#d2a959" opacity="0.74"/><rect x="408.2" y="248.2" width="23.5" height="23.5" rx="6.1" fill="#B97A00" opacity="0.73"/><rect x="408.7" y="288.7" width="22.6" height="22.6" rx="5.9" fill="#0A6BF9" opacity="0.61"/><rect x="407.7" y="367.7" width="24.6" height="24.6" rx="6.4" fill="#0A6BF9" opacity="0.64"/><rect x="446.4" y="6.4" width="27.1" height="27.1" rx="7.1" fill="#0A6BF9" opacity="0.76"/><rect x="444.1" y="44.1" width="31.9" height="31.9" rx="8.3" fill="#0A6BF9" opacity="0.97"/><rect x="443.5" y="83.5" width="32.9" height="32.9" rx="8.6" fill="#0A6BF9" opacity="0.80"/><rect x="445.4" y="245.4" width="29.2" height="29.2" rx="7.6" fill="#0A6BF9" opacity="0.78"/><rect x="446.0" y="286.0" width="27.9" height="27.9" rx="7.3" fill="#d2a959" opacity="0.85"/><rect x="446.0" y="326.0" width="27.9" height="27.9" rx="7.3" fill="#0A6BF9" opacity="0.75"/><rect x="444.1" y="364.1" width="31.9" height="31.9" rx="8.3" fill="#d2a959" opacity="0.84"/><rect x="488.7" y="8.7" width="22.6" height="22.6" rx="5.9" fill="#d2a959" opacity="0.62"/><rect x="487.9" y="47.9" width="24.3" height="24.3" rx="6.3" fill="#0A6BF9" opacity="0.62"/><rect x="486.5" y="86.5" width="27.0" height="27.0" rx="7.0" fill="#B97A00" opacity="0.71"/><rect x="489.0" y="289.0" width="22.0" height="22.0" rx="5.7" fill="#B97A00" opacity="0.67"/><rect x="488.8" y="368.8" width="22.4" height="22.4" rx="5.8" fill="#d2a959" opacity="0.57"/><rect x="532.0" y="372.0" width="15.9" height="15.9" rx="4.1" fill="#B97A00" opacity="0.39"/></svg>