<svg xmlns="http://www.w3.org/2000/svg" viewBox="0 0 640 400" preserveAspectRatio="xMidYMid slice"><defs><linearGradient id="g" x1="0" y1="0" x2="1" y2="1"><stop offset="0" stop-color="#170d36"/><stop offset="1" stop-color="#061329"/></linearGradient><radialGradient id="r" cx="0.75" cy="0.42" r="0.7"><stop offset="0" stop-color="#6A2BF0" stop-opacity="0.35"/><stop offset="1" stop-color="#6A2BF0" stop-opacity="0"/></radialGradient></defs><rect width="640" height="400" fill="url(#g)"/><rect width="640" height="400" fill="url(#r)"/><rect x="524.8" y="84.8" width="110.4" height="110.4" rx="26.5" fill="#0A6BF9" opacity="0.86"/><rect x="444.8" y="164.8" width="70.4" height="70.4" rx="16.9" fill="#2CCBF9" opacity="0.97"/><rect x="134.5" y="294.5" width="11.1" height="11.1" rx="2.9" fill="#6A2BF0" opacity="0.29"/><rect x="213.4" y="213.4" width="13.3" height="13.3" rx="3.5" fill="#6A2BF0" opacity="0.32"/><rect x="293.1" y="93.1" width="13.9" height="13.9" rx="3.6" fill="#6A2BF0" opacity="0.41"/><rect x="292.7" y="172.7" width="14.5" height="14.5" rx="3.8" fill="#0A6BF9" opacity="0.40"/><rect x="331.4" y="11.4" width="17.1" height="17.1" rx="4.5" fill="#6A2BF0" opacity="0.40"/><rect x="331.7" y="251.7" width="16.7" height="16.7" rx="4.3" fill="#6A2BF0" opacity="0.39"/><rect x="332.6" y="292.6" width="14.8" height="14.8" rx="3.9" fill="#0A6BF9" opacity="0.39"/><rect x="372.1" y="52.1" width="15.8" height="15.8" rx="4.1" fill="#0A6BF9" opacity="0.48"/><rect x="371.1" y="211.1" width="17.7" height="17.7" rx="4.6" fill="#6A2BF0" opacity="0.45"/><rect x="410.4" y="90.4" width="19.2" height="19.2" rx="5.0" fill="#0A6BF9" opacity="0.46"/><rect x="411.2" y="131.2" width="17.6" height="17.6" rx="4.6" fill="#E2323F" opacity="0.50"/><rect x="411.2" y="211.2" width="17.7" height="17.7" rx="4.6" fill="#6A2BF0" opacity="0.49"/><rect x="411.3" y="291.3" width="17.4" height="17.4" rx="4.5" fill="#9e75f5" opacity="0.54"/><rect x="411.4" y="371.4" width="17.3" height="17.3" rx="4.5" fill="#6A2BF0" opacity="0.52"/><rect x="450.2" y="130.2" width="19.6" height="19.6" rx="5.1" fill="#6A2BF0" opacity="0.51"/><rect x="449.8" y="249.8" width="20.3" height="20.3" rx="5.3" fill="#6A2BF0" opacity="0.50"/><rect x="450.4" y="290.4" width="19.2" height="19.2" rx="5.0" fill="#6A2BF0" opacity="0.57"/><rect x="450.3" y="370.3" width="19.4" height="19.4" rx="5.0" fill="#6A2BF0" opacity="0.48"/><rect x="490.5" y="50.5" width="19.0" height="19.0" rx="4.9" fill="#6A2BF0" opacity="0.63"/><rect x="490.2" y="90.2" width="19.6" height="19.6" rx="5.1" fill="#6A2BF0" opacity="0.66"/><rect x="490.5" y="130.5" width="19.0" height="19.0" rx="4.9" fill="#9e75f5" opacity="0.55"/><rect x="527.6" y="367.6" width="24.7" height="24.7" rx="6.4" fill="#0A6BF9" opacity="0.73"/><rect x="567.9" y="7.9" width="24.3" height="24.3" rx="6.3" fill="#6A2BF0" opacity="0.77"/><rect x="567.5" y="247.5" width="25.0" height="25.0" rx="6.5" fill="#9e75f5" opacity="0.74"/><rect x="569.2" y="289.2" width="21.6" height="21.6" rx="5.6" fill="#9e75f5" opacity="0.76"/><rect x="568.5" y="368.5" width="23.1" height="23.1" rx="6.0" fill="#9e75f5" opacity="0.78"/><rect x="607.9" y="7.9" width="24.3" height="24.3" rx="6.3" fill="#E2323F" opacity="0.63"/><rect x="606.1" y="46.1" width="27.7" height="27.7" rx="7.2" fill="#E2323F" opacity="0.68"/><rect x="604.7" y="244.7" width="30.5" height="30.5" rx="7.9" fill="#E2323F" opacity="0.66"/><rect x="604.8" y="284.8" width="30.4" height="30.4" rx="7.9" fill="#9e75f5" opacity="0.79"/><rect x="608.4" y="328.4" width="23.3" height="23.3" rx="6.0" fill="#0A6BF9" opacity="0.68"/><rect x="605.5" y="365.5" width="29.0" height="29.0" rx="7.5" fill="#0A6BF9" opacity="0.75"/></svg>