<svg xmlns="http://www.w3.org/2000/svg" viewBox="0 0 640 400" preserveAspectRatio="xMidYMid slice"><defs><linearGradient id="g" x1="0" y1="0" x2="1" y2="1"><stop offset="0" stop-color="#06202b"/><stop offset="1" stop-color="#110b28"/></linearGradient><radialGradient id="r" cx="0.83" cy="0.65" r="0.7"><stop offset="0" stop-color="#0891B2" stop-opacity="0.35"/><stop offset="1" stop-color="#0891B2" stop-opacity="0"/></radialGradient></defs><rect width="640" height="400" fill="url(#g)"/><rect width="640" height="400" fill="url(#r)"/><rect x="524.8" y="244.8" width="70.4" height="70.4" rx="16.9" fill="#6A2BF0" opacity="0.91"/><rect x="404.8" y="124.8" width="70.4" height="70.4" rx="16.9" fill="#6A2BF0" opacity="0.88"/><rect x="88.0" y="8.0" width="23.9" height="23.9" rx="6.2" fill="#0891B2" opacity="0.79"/><rect x="93.1" y="93.1" width="13.9" height="13.9" rx="3.6" fill="#0A6BF9" opacity="0.37"/><rect x="164.4" y="44.4" width="31.1" height="31.1" rx="8.1" fill="#0891B2" opacity="0.79"/><rect x="169.3" y="89.3" width="21.3" height="21.3" rx="5.6" fill="#0891B2" opacity="0.64"/><rect x="205.6" y="45.6" width="28.8" height="28.8" rx="7.5" fill="#0891B2" opacity="0.74"/><rect x="205.9" y="85.9" width="28.1" height="28.1" rx="7.3" fill="#5eb8cd" opacity="0.78"/><rect x="212.2" y="172.2" width="15.7" height="15.7" rx="4.1" fill="#0891B2" opacity="0.39"/><rect x="248.3" y="8.3" width="23.3" height="23.3" rx="6.1" fill="#6A2BF0" opacity="0.55"/><rect x="247.1" y="87.1" width="25.7" height="25.7" rx="6.7" fill="#5eb8cd" opacity="0.72"/><rect x="249.5" y="129.5" width="21.0" height="21.0" rx="5.5" fill="#0891B2" opacity="0.67"/><rect x="253.5" y="213.5" width="13.0" height="13.0" rx="3.4" fill="#0891B2" opacity="0.35"/><rect x="290.5" y="10.5" width="18.9" height="18.9" rx="4.9" fill="#6A2BF0" opacity="0.49"/><rect x="289.8" y="49.8" width="20.4" height="20.4" rx="5.3" fill="#6A2BF0" opacity="0.67"/><rect x="285.3" y="85.3" width="29.5" height="29.5" rx="7.7" fill="#0891B2" opacity="0.90"/><rect x="288.6" y="168.6" width="22.8" height="22.8" rx="5.9" fill="#6A2BF0" opacity="0.63"/><rect x="332.5" y="12.5" width="15.1" height="15.1" rx="3.9" fill="#0891B2" opacity="0.40"/><rect x="330.8" y="210.8" width="18.3" height="18.3" rx="4.8" fill="#5eb8cd" opacity="0.51"/><rect x="332.2" y="252.2" width="15.6" height="15.6" rx="4.0" fill="#0A6BF9" opacity="0.41"/><rect x="369.9" y="89.9" width="20.3" height="20.3" rx="5.3" fill="#5eb8cd" opacity="0.51"/><rect x="367.6" y="207.6" width="24.8" height="24.8" rx="6.4" fill="#0891B2" opacity="0.55"/><rect x="406.1" y="206.1" width="27.7" height="27.7" rx="7.2" fill="#6A2BF0" opacity="0.87"/><rect x="408.4" y="248.4" width="23.2" height="23.2" rx="6.0" fill="#5eb8cd" opacity="0.67"/><rect x="446.6" y="206.6" width="26.8" height="26.8" rx="7.0" fill="#0891B2" opacity="0.74"/><rect x="446.8" y="246.8" width="26.5" height="26.5" rx="6.9" fill="#0A6BF9" opacity="0.59"/><rect x="450.9" y="290.9" width="18.2" height="18.2" rx="4.7" fill="#0A6BF9" opacity="0.47"/><rect x="485.1" y="205.1" width="29.7" height="29.7" rx="7.7" fill="#0891B2" opacity="0.74"/><rect x="483.3" y="243.3" width="33.5" height="33.5" rx="8.7" fill="#6A2BF0" opacity="0.72"/><rect x="488.0" y="288.0" width="24.0" height="24.0" rx="6.2" fill="#0891B2" opacity="0.59"/><rect x="490.5" y="330.5" width="19.1" height="19.1" rx="5.0" fill="#0891B2" opacity="0.54"/><rect x="530.1" y="170.1" width="19.8" height="19.8" rx="5.1" fill="#0891B2" opacity="0.45"/><rect x="528.6" y="328.6" width="22.9" height="22.9" rx="6.0" fill="#0A6BF9" opacity="0.61"/><rect x="570.1" y="210.1" width="19.8" height="19.8" rx="5.1" fill="#0A6BF9" opacity="0.52"/><rect x="607.5" y="287.5" width="25.0" height="25.0" rx="6.5" fill="#0891B2" opacity="0.76"/><rect x="605.0" y="325.0" width="29.9" height="29.9" rx="7.8" fill="#0891B2" opacity="0.68"/><rect x="609.5" y="369.5" width="20.9" height="20.9" rx="5.4" fill="#0891B2" opacity="0.56"/></svg>