<svg xmlns="http://www.w3.org/2000/svg" viewBox="0 0 640 400" preserveAspectRatio="xMidYMid slice"><defs><linearGradient id="g" x1="0" y1="0" x2="1" y2="1"><stop offset="0" stop-color="#170d36"/><stop offset="1" stop-color="#0a1f29"/></linearGradient><radialGradient id="r" cx="0.63" cy="0.68" r="0.7"><stop offset="0" stop-color="#6A2BF0" stop-opacity="0.35"/><stop offset="1" stop-color="#6A2BF0" stop-opacity="0"/></radialGradient></defs><rect width="640" height="400" fill="url(#g)"/><rect width="640" height="400" fill="url(#r)"/><rect x="484.8" y="284.8" width="110.4" height="110.4" rx="26.5" fill="#6A2BF0" opacity="0.89"/><rect x="324.8" y="244.8" width="70.4" height="70.4" rx="16.9" fill="#2CCBF9" opacity="0.92"/><rect x="165.4" y="5.4" width="29.1" height="29.1" rx="7.6" fill="#2CCBF9" opacity="0.81"/><rect x="170.6" y="90.6" width="18.9" height="18.9" rx="4.9" fill="#6A2BF0" opacity="0.58"/><rect x="171.6" y="131.6" width="16.9" height="16.9" rx="4.4" fill="#2CCBF9" opacity="0.48"/><rect x="205.0" y="5.0" width="30.1" height="30.1" rx="7.8" fill="#6A2BF0" opacity="0.71"/><rect x="205.4" y="45.4" width="29.3" height="29.3" rx="7.6" fill="#0A6BF9" opacity="0.95"/><rect x="205.9" y="85.9" width="28.1" height="28.1" rx="7.3" fill="#6A2BF0" opacity="0.78"/><rect x="248.9" y="8.9" width="22.3" height="22.3" rx="5.8" fill="#6A2BF0" opacity="0.56"/><rect x="245.0" y="45.0" width="29.9" height="29.9" rx="7.8" fill="#0A6BF9" opacity="0.62"/><rect x="246.5" y="86.5" width="27.0" height="27.0" rx="7.0" fill="#2CCBF9" opacity="0.95"/><rect x="246.9" y="126.9" width="26.3" height="26.3" rx="6.8" fill="#9e75f5" opacity="0.81"/><rect x="249.9" y="169.9" width="20.2" height="20.2" rx="5.3" fill="#6A2BF0" opacity="0.57"/><rect x="289.0" y="89.0" width="22.0" height="22.0" rx="5.7" fill="#0A6BF9" opacity="0.74"/><rect x="285.7" y="125.7" width="28.7" height="28.7" rx="7.5" fill="#6A2BF0" opacity="0.77"/><rect x="323.2" y="163.2" width="33.5" height="33.5" rx="8.7" fill="#9e75f5" opacity="0.91"/><rect x="325.8" y="205.8" width="28.4" height="28.4" rx="7.4" fill="#9e75f5" opacity="0.67"/><rect x="332.6" y="332.6" width="14.8" height="14.8" rx="3.9" fill="#2CCBF9" opacity="0.40"/><rect x="372.2" y="92.2" width="15.6" height="15.6" rx="4.1" fill="#6A2BF0" opacity="0.41"/><rect x="369.0" y="169.0" width="22.1" height="22.1" rx="5.7" fill="#0A6BF9" opacity="0.56"/><rect x="370.8" y="330.8" width="18.4" height="18.4" rx="4.8" fill="#9e75f5" opacity="0.48"/><rect x="409.6" y="169.6" width="20.8" height="20.8" rx="5.4" fill="#6A2BF0" opacity="0.52"/><rect x="406.7" y="206.7" width="26.6" height="26.6" rx="6.9" fill="#6A2BF0" opacity="0.67"/><rect x="407.7" y="247.7" width="24.7" height="24.7" rx="6.4" fill="#2CCBF9" opacity="0.66"/><rect x="408.8" y="328.8" width="22.4" height="22.4" rx="5.8" fill="#2CCBF9" opacity="0.73"/><rect x="446.0" y="286.0" width="27.9" height="27.9" rx="7.3" fill="#9e75f5" opacity="0.78"/><rect x="444.6" y="324.6" width="30.9" height="30.9" rx="8.0" fill="#6A2BF0" opacity="0.91"/><rect x="532.9" y="252.9" width="14.1" height="14.1" rx="3.7" fill="#6A2BF0" opacity="0.34"/></svg>