<svg xmlns="http://www.w3.org/2000/svg" viewBox="0 0 640 400" preserveAspectRatio="xMidYMid slice"><defs><linearGradient id="g" x1="0" y1="0" x2="1" y2="1"><stop offset="0" stop-color="#170d36"/><stop offset="1" stop-color="#221215"/></linearGradient><radialGradient id="r" cx="0.72" cy="0.56" r="0.7"><stop offset="0" stop-color="#6A2BF0" stop-opacity="0.35"/><stop offset="1" stop-color="#6A2BF0" stop-opacity="0"/></radialGradient></defs><rect width="640" height="400" fill="url(#g)"/><rect width="640" height="400" fill="url(#r)"/><rect x="444.8" y="244.8" width="110.4" height="110.4" rx="26.5" fill="#6A2BF0" opacity="0.82"/><rect x="284.8" y="204.8" width="70.4" height="70.4" rx="16.9" fill="#6A2BF0" opacity="1.00"/><rect x="7.0" y="247.0" width="25.9" height="25.9" rx="6.7" fill="#6A2BF0" opacity="0.76"/><rect x="4.6" y="284.6" width="30.7" height="30.7" rx="8.0" fill="#6A2BF0" opacity="0.72"/><rect x="11.3" y="371.3" width="17.4" height="17.4" rx="4.5" fill="#6A2BF0" opacity="0.48"/><rect x="45.7" y="285.7" width="28.6" height="28.6" rx="7.4" fill="#6119F9" opacity="0.77"/><rect x="85.7" y="245.7" width="28.6" height="28.6" rx="7.4" fill="#9e75f5" opacity="0.79"/><rect x="85.4" y="285.4" width="29.2" height="29.2" rx="7.6" fill="#9e75f5" opacity="0.67"/><rect x="130.3" y="210.3" width="19.4" height="19.4" rx="5.0" fill="#9e75f5" opacity="0.53"/><rect x="127.5" y="247.5" width="25.0" height="25.0" rx="6.5" fill="#6A2BF0" opacity="0.76"/><rect x="131.6" y="371.6" width="16.8" height="16.8" rx="4.4" fill="#6A2BF0" opacity="0.42"/><rect x="169.3" y="209.3" width="21.4" height="21.4" rx="5.6" fill="#6119F9" opacity="0.53"/><rect x="167.7" y="247.7" width="24.5" height="24.5" rx="6.4" fill="#F9604F" opacity="0.86"/><rect x="168.9" y="328.9" width="22.1" height="22.1" rx="5.8" fill="#6A2BF0" opacity="0.53"/><rect x="208.2" y="208.2" width="23.5" height="23.5" rx="6.1" fill="#6A2BF0" opacity="0.55"/><rect x="206.1" y="286.1" width="27.9" height="27.9" rx="7.2" fill="#6A2BF0" opacity="0.67"/><rect x="251.1" y="331.1" width="17.7" height="17.7" rx="4.6" fill="#F9604F" opacity="0.56"/><rect x="287.6" y="287.6" width="24.9" height="24.9" rx="6.5" fill="#6A2BF0" opacity="0.59"/><rect x="290.5" y="330.5" width="19.0" height="19.0" rx="5.0" fill="#F9604F" opacity="0.45"/><rect x="371.3" y="171.3" width="17.3" height="17.3" rx="4.5" fill="#6A2BF0" opacity="0.47"/><rect x="366.3" y="206.3" width="27.3" height="27.3" rx="7.1" fill="#9e75f5" opacity="0.69"/><rect x="365.6" y="245.6" width="28.8" height="28.8" rx="7.5" fill="#6A2BF0" opacity="0.71"/><rect x="366.6" y="286.6" width="26.9" height="26.9" rx="7.0" fill="#6A2BF0" opacity="0.57"/><rect x="374.7" y="374.7" width="10.6" height="10.6" rx="2.7" fill="#6A2BF0" opacity="0.27"/><rect x="405.7" y="205.7" width="28.7" height="28.7" rx="7.5" fill="#6A2BF0" opacity="0.76"/><rect x="407.2" y="287.2" width="25.6" height="25.6" rx="6.6" fill="#6119F9" opacity="0.53"/><rect x="530.0" y="170.0" width="20.0" height="20.0" rx="5.2" fill="#6119F9" opacity="0.65"/><rect x="525.3" y="205.3" width="29.3" height="29.3" rx="7.6" fill="#6A2BF0" opacity="0.84"/><rect x="565.5" y="205.5" width="28.9" height="28.9" rx="7.5" fill="#F9604F" opacity="0.88"/><rect x="566.4" y="246.4" width="27.1" height="27.1" rx="7.1" fill="#9e75f5" opacity="0.80"/><rect x="609.2" y="169.2" width="21.5" height="21.5" rx="5.6" fill="#6A2BF0" opacity="0.60"/><rect x="603.3" y="203.3" width="33.4" height="33.4" rx="8.7" fill="#F9604F" opacity="0.83"/><rect x="605.8" y="245.8" width="28.4" height="28.4" rx="7.4" fill="#6119F9" opacity="0.69"/></svg>