<svg xmlns="http://www.w3.org/2000/svg" viewBox="0 0 640 400" preserveAspectRatio="xMidYMid slice"><defs><linearGradient id="g" x1="0" y1="0" x2="1" y2="1"><stop offset="0" stop-color="#251c0b"/><stop offset="1" stop-color="#100929"/></linearGradient><radialGradient id="r" cx="0.85" cy="0.33" r="0.7"><stop offset="0" stop-color="#B97A00" stop-opacity="0.35"/><stop offset="1" stop-color="#B97A00" stop-opacity="0"/></radialGradient></defs><rect width="640" height="400" fill="url(#g)"/><rect width="640" height="400" fill="url(#r)"/><rect x="484.8" y="164.8" width="70.4" height="70.4" rx="16.9" fill="#B97A00" opacity="0.94"/><rect x="364.8" y="44.8" width="70.4" height="70.4" rx="16.9" fill="#6119F9" opacity="0.84"/><rect x="214.8" y="214.8" width="10.4" height="10.4" rx="2.7" fill="#6119F9" opacity="0.26"/><rect x="252.9" y="172.9" width="14.1" height="14.1" rx="3.7" fill="#B97A00" opacity="0.35"/><rect x="293.1" y="93.1" width="13.9" height="13.9" rx="3.6" fill="#d2a959" opacity="0.39"/><rect x="292.4" y="172.4" width="15.3" height="15.3" rx="4.0" fill="#B97A00" opacity="0.41"/><rect x="292.6" y="212.6" width="14.9" height="14.9" rx="3.9" fill="#B97A00" opacity="0.39"/><rect x="333.4" y="13.4" width="13.3" height="13.3" rx="3.5" fill="#B97A00" opacity="0.35"/><rect x="331.7" y="91.7" width="16.6" height="16.6" rx="4.3" fill="#6119F9" opacity="0.51"/><rect x="370.3" y="170.3" width="19.4" height="19.4" rx="5.0" fill="#B97A00" opacity="0.54"/><rect x="369.7" y="209.7" width="20.6" height="20.6" rx="5.4" fill="#d2a959" opacity="0.54"/><rect x="371.9" y="251.9" width="16.1" height="16.1" rx="4.2" fill="#6119F9" opacity="0.42"/><rect x="411.9" y="11.9" width="16.2" height="16.2" rx="4.2" fill="#6119F9" opacity="0.45"/><rect x="409.8" y="129.8" width="20.3" height="20.3" rx="5.3" fill="#6119F9" opacity="0.54"/><rect x="409.5" y="209.5" width="20.9" height="20.9" rx="5.4" fill="#6119F9" opacity="0.56"/><rect x="410.9" y="290.9" width="18.2" height="18.2" rx="4.7" fill="#B97A00" opacity="0.42"/><rect x="446.7" y="126.7" width="26.7" height="26.7" rx="6.9" fill="#d2a959" opacity="0.78"/><rect x="448.0" y="168.0" width="23.9" height="23.9" rx="6.2" fill="#6119F9" opacity="0.77"/><rect x="447.4" y="207.4" width="25.2" height="25.2" rx="6.5" fill="#6119F9" opacity="0.55"/><rect x="450.8" y="250.8" width="18.3" height="18.3" rx="4.8" fill="#d2a959" opacity="0.57"/><rect x="454.3" y="374.3" width="11.5" height="11.5" rx="3.0" fill="#6119F9" opacity="0.30"/><rect x="490.0" y="10.0" width="19.9" height="19.9" rx="5.2" fill="#d2a959" opacity="0.48"/><rect x="487.0" y="87.0" width="26.1" height="26.1" rx="6.8" fill="#6119F9" opacity="0.67"/><rect x="488.0" y="128.0" width="24.0" height="24.0" rx="6.2" fill="#B97A00" opacity="0.79"/><rect x="489.9" y="289.9" width="20.1" height="20.1" rx="5.2" fill="#6119F9" opacity="0.47"/><rect x="526.1" y="126.1" width="27.8" height="27.8" rx="7.2" fill="#B97A00" opacity="0.71"/><rect x="570.3" y="10.3" width="19.3" height="19.3" rx="5.0" fill="#B97A00" opacity="0.48"/><rect x="565.9" y="125.9" width="28.2" height="28.2" rx="7.3" fill="#6119F9" opacity="0.87"/><rect x="565.9" y="165.9" width="28.3" height="28.3" rx="7.4" fill="#6119F9" opacity="0.66"/><rect x="609.1" y="49.1" width="21.8" height="21.8" rx="5.7" fill="#B97A00" opacity="0.59"/><rect x="607.5" y="87.5" width="25.0" height="25.0" rx="6.5" fill="#d2a959" opacity="0.62"/><rect x="608.5" y="168.5" width="23.1" height="23.1" rx="6.0" fill="#B97A00" opacity="0.70"/><rect x="608.9" y="208.9" width="22.3" height="22.3" rx="5.8" fill="#B97A00" opacity="0.59"/><rect x="610.4" y="290.4" width="19.2" height="19.2" rx="5.0" fill="#6119F9" opacity="0.51"/><rect x="611.6" y="331.6" width="16.8" height="16.8" rx="4.4" fill="#B97A00" opacity="0.40"/><rect x="614.0" y="374.0" width="12.0" height="12.0" rx="3.1" fill="#6119F9" opacity="0.31"/></svg>