<svg xmlns="http://www.w3.org/2000/svg" viewBox="0 0 640 400" preserveAspectRatio="xMidYMid slice"><defs><linearGradient id="g" x1="0" y1="0" x2="1" y2="1"><stop offset="0" stop-color="#170d36"/><stop offset="1" stop-color="#051821"/></linearGradient><radialGradient id="r" cx="0.66" cy="0.57" r="0.7"><stop offset="0" stop-color="#6A2BF0" stop-opacity="0.35"/><stop offset="1" stop-color="#6A2BF0" stop-opacity="0"/></radialGradient></defs><rect width="640" height="400" fill="url(#g)"/><rect width="640" height="400" fill="url(#r)"/><rect x="484.8" y="164.8" width="70.4" height="70.4" rx="16.9" fill="#0891B2" opacity="0.95"/><rect x="244.8" y="164.8" width="70.4" height="70.4" rx="16.9" fill="#F9604F" opacity="0.83"/><rect x="484.8" y="284.8" width="70.4" height="70.4" rx="16.9" fill="#0A6BF9" opacity="0.89"/><rect x="404.8" y="244.8" width="70.4" height="70.4" rx="16.9" fill="#2CCBF9" opacity="0.91"/><rect x="253.3" y="333.3" width="13.3" height="13.3" rx="3.5" fill="#F9604F" opacity="0.34"/><rect x="252.9" y="372.9" width="14.1" height="14.1" rx="3.7" fill="#9e75f5" opacity="0.39"/><rect x="293.1" y="13.1" width="13.9" height="13.9" rx="3.6" fill="#0891B2" opacity="0.42"/><rect x="292.8" y="52.8" width="14.5" height="14.5" rx="3.8" fill="#0891B2" opacity="0.41"/><rect x="292.0" y="92.0" width="16.0" height="16.0" rx="4.2" fill="#6A2BF0" opacity="0.42"/><rect x="293.1" y="253.1" width="13.9" height="13.9" rx="3.6" fill="#9e75f5" opacity="0.36"/><rect x="292.6" y="372.6" width="14.8" height="14.8" rx="3.9" fill="#9e75f5" opacity="0.41"/><rect x="331.9" y="51.9" width="16.2" height="16.2" rx="4.2" fill="#0891B2" opacity="0.39"/><rect x="331.5" y="91.5" width="17.0" height="17.0" rx="4.4" fill="#F9604F" opacity="0.40"/><rect x="332.3" y="132.3" width="15.5" height="15.5" rx="4.0" fill="#6A2BF0" opacity="0.45"/><rect x="331.2" y="291.2" width="17.6" height="17.6" rx="4.6" fill="#6A2BF0" opacity="0.44"/><rect x="331.7" y="371.7" width="16.6" height="16.6" rx="4.3" fill="#9e75f5" opacity="0.44"/><rect x="370.5" y="10.5" width="19.0" height="19.0" rx="4.9" fill="#6A2BF0" opacity="0.43"/><rect x="371.6" y="171.6" width="16.9" height="16.9" rx="4.4" fill="#0891B2" opacity="0.51"/><rect x="370.9" y="290.9" width="18.2" height="18.2" rx="4.7" fill="#9e75f5" opacity="0.49"/><rect x="410.7" y="10.7" width="18.7" height="18.7" rx="4.9" fill="#6A2BF0" opacity="0.55"/><rect x="410.3" y="130.3" width="19.3" height="19.3" rx="5.0" fill="#9e75f5" opacity="0.54"/><rect x="410.6" y="210.6" width="18.8" height="18.8" rx="4.9" fill="#0891B2" opacity="0.50"/><rect x="411.2" y="371.2" width="17.7" height="17.7" rx="4.6" fill="#9e75f5" opacity="0.50"/><rect x="450.0" y="50.0" width="20.1" height="20.1" rx="5.2" fill="#0891B2" opacity="0.61"/><rect x="449.9" y="89.9" width="20.1" height="20.1" rx="5.2" fill="#F9604F" opacity="0.61"/><rect x="488.5" y="8.5" width="23.0" height="23.0" rx="6.0" fill="#0891B2" opacity="0.51"/><rect x="488.9" y="48.9" width="22.3" height="22.3" rx="5.8" fill="#0891B2" opacity="0.63"/><rect x="487.7" y="367.7" width="24.6" height="24.6" rx="6.4" fill="#F9604F" opacity="0.57"/><rect x="528.8" y="48.8" width="22.4" height="22.4" rx="5.8" fill="#6A2BF0" opacity="0.62"/><rect x="527.8" y="87.8" width="24.5" height="24.5" rx="6.4" fill="#0891B2" opacity="0.71"/><rect x="528.5" y="128.5" width="22.9" height="22.9" rx="6.0" fill="#0891B2" opacity="0.69"/><rect x="527.7" y="247.7" width="24.6" height="24.6" rx="6.4" fill="#6A2BF0" opacity="0.62"/><rect x="526.8" y="366.8" width="26.5" height="26.5" rx="6.9" fill="#0891B2" opacity="0.58"/><rect x="566.5" y="46.5" width="27.1" height="27.1" rx="7.0" fill="#6A2BF0" opacity="0.70"/><rect x="568.4" y="88.4" width="23.3" height="23.3" rx="6.1" fill="#6A2BF0" opacity="0.78"/><rect x="568.1" y="128.1" width="23.7" height="23.7" rx="6.2" fill="#0891B2" opacity="0.75"/><rect x="567.9" y="167.9" width="24.2" height="24.2" rx="6.3" fill="#9e75f5" opacity="0.67"/><rect x="567.9" y="207.9" width="24.2" height="24.2" rx="6.3" fill="#F9604F" opacity="0.70"/><rect x="565.7" y="285.7" width="28.6" height="28.6" rx="7.4" fill="#6A2BF0" opacity="0.71"/><rect x="566.6" y="326.6" width="26.8" height="26.8" rx="7.0" fill="#6A2BF0" opacity="0.72"/><rect x="606.8" y="86.8" width="26.3" height="26.3" rx="6.8" fill="#0891B2" opacity="0.66"/><rect x="606.3" y="166.3" width="27.3" height="27.3" rx="7.1" fill="#F9604F" opacity="0.65"/><rect x="605.5" y="205.5" width="29.0" height="29.0" rx="7.5" fill="#0891B2" opacity="0.62"/><rect x="606.4" y="246.4" width="27.3" height="27.3" rx="7.1" fill="#0891B2" opacity="0.68"/><rect x="607.6" y="287.6" width="24.7" height="24.7" rx="6.4" fill="#0891B2" opacity="0.78"/><rect x="608.3" y="368.3" width="23.4" height="23.4" rx="6.1" fill="#0891B2" opacity="0.69"/></svg>